<svg version="1.2" xmlns="http://www.w3.org/2000/svg" viewBox="0 0 805 345" width="805" height="345"><style>.a{fill:none;stroke:#005187;stroke-width:16}.b{fill:#fefefe;stroke:#005187;stroke-width:16}.c{fill:#005187}</style><path class="a" d="m178.6 331.8l-47.1-46.1-66-0.7-0.7-66-46.2-47.2 46.2-47.1 0.7-66 66-0.7 47.1-46.2"/><path class="b" d="m178.6 6.7v63.5"/><path class="b" d="m178.6 273.2v63.5"/><path class="c" d="m489.2 116.5c-11.1 0-19.9 2.8-19 12.2l3.1 31.2c1.3 12.7-3.7 18.4-14.2 20.3 10.7 2 15.5 7 14.2 20.4l-3.1 31.1c-0.9 9.6 7.9 12.2 19 12.2v10.2c-17 0-32.8-5.2-30.8-23.7l3.2-28.9c1-10.5-2.6-16.1-23.1-16.1v-10.3c20.5 0 24.1-5.5 23.1-15.8l-3.2-29.2c-2-18.6 13.8-23.7 30.8-23.7z"/><path class="c" d="m156.7 140.1v-12.5h92.5v12.5h-38.8v96.9h-14.8v-96.9zm106.7 89.3v-101.8h14.8v101.8q0 19.8-7.5 28.7-7.5 8.9-24.1 8.9h-5.6v-12.4h4.6q9.8 0 13.8-5.5 4-5.5 4-19.7zm42.6-33.5v-68.3h14.9v66.5q0 17.6 6.3 25.3 6.4 7.7 20.7 7.7 14.2 0 20.6-7.7 6.3-7.7 6.3-25.3v-66.5h14.9v68.3q0 21.4-10.6 32.3-10.6 10.9-31.2 10.9-20.7 0-31.4-10.9-10.5-10.9-10.5-32.3z"/><path class="c" d="m563.3 235.1c-25.4 0-38.5-21.4-38.5-53.8 0-31.6 13.1-54.3 38.5-54.3 25.3 0 38.4 21.9 38.4 54.1 0 31.8-13.1 54-38.4 54zm0-97c-17.7 0-24.8 15.4-24.8 43.2 0 27.9 7.6 42.7 24.8 42.7 17.6 0 24.7-14.9 24.7-42.9 0-27.8-7.1-43-24.7-43z"/><path class="c" d="m690.2 198.6c0 17.5-8.2 36.6-35.9 36.6-10.2 0-20.4-3.3-28.6-9.5l5.8-8.7c9 5.6 16.6 7.1 22.6 7.1 14.6 0 22.8-9.8 22.8-26.1v-58.5h-31v-10.8h44.3z"/><path class="c" d="m765.1 130.1l-3.2 29.2c-1 10.3 4.4 15.8 23.1 15.8v10.3c-18.8 0-24.1 5.6-23.1 16.1l3.2 28.9c2 18.5-13.8 23.7-30.8 23.7v-10.2c11 0 19.9-2.6 18.9-12.2l-3-31.1c-1.4-13.4 3.4-18.4 15.8-20.2-12-2.1-17.2-7.8-15.8-20.5l3-31.2c1-9.4-7.9-12.2-18.9-12.2v-10.1c17 0 32.8 5.1 30.8 23.7z"/></svg>
