<svg id="nku-oj-slogan" xmlns="http://www.w3.org/2000/svg" viewBox="0 0 97.2 41.43"><defs><style>.cls-1{fill:none;}.cls-1,.cls-2{stroke:#f8f9fa;stroke-miterlimit:10;stroke-width:2px;}.cls-2{fill:#fff;}.cls-3{fill:#f8f9fa;}</style></defs><polyline id="path" class="cls-1" points="21.4 40.71 15.51 34.94 7.26 34.86 7.17 26.61 1.4 20.71 7.17 14.82 7.26 6.57 15.51 6.49 21.4 0.71"/><line id="path-2" class="cls-2" x1="21.4" y1="0.08" x2="21.4" y2="8.01"/><line id="path-3" class="cls-2" x1="21.4" y1="33.38" x2="21.4" y2="41.32"/><path class="cls-3" d="M27.86,26.68c0,.57.23,2.93.23,4.94v6.56H26.55V25.09h2.24l4.69,11.55c0-.53-.23-2.64-.23-5V25.09h1.54V38.18H32.47Z" transform="translate(-9.68 -9.77)"/><path class="cls-3" d="M39.09,38.18V25.09h1.65V38.18ZM46,25.09h1.92l-5.11,6,5.47,7.09H46.17l-5.34-7Z" transform="translate(-9.68 -9.77)"/><path class="cls-3" d="M59.24,33.94a4.15,4.15,0,0,1-4.35,4.45,4.1,4.1,0,0,1-4.31-4.45V25.09h1.65V34c0,2,1,3,2.66,3s2.68-1,2.68-3V25.09h1.67Z" transform="translate(-9.68 -9.77)"/><path class="cls-3" d="M69.9,23.57c-1.38,0-2.49.34-2.37,1.52L67.91,29c.17,1.6-.46,2.3-1.77,2.55,1.33.24,1.94.87,1.77,2.54L67.53,38c-.12,1.2,1,1.52,2.37,1.52v1.27c-2.12,0-4.1-.65-3.85-3l.4-3.61c.13-1.31-.33-2-2.89-2V30.88c2.56,0,3-.68,2.89-2l-.4-3.65c-.25-2.32,1.73-3,3.85-3Z" transform="translate(-9.68 -9.77)"/><path class="cls-3" d="M79.16,38.39c-3.18,0-4.81-2.68-4.81-6.73s1.63-6.78,4.81-6.78S84,27.61,84,31.64,82.33,38.39,79.16,38.39Zm0-12.12c-2.21,0-3.1,1.91-3.1,5.39S77,37,79.16,37s3.09-1.86,3.09-5.36S81.36,26.27,79.16,26.27Z" transform="translate(-9.68 -9.77)"/><path class="cls-3" d="M95,33.83c0,2.18-1,4.57-4.48,4.57A5.9,5.9,0,0,1,87,37.21l.72-1.08a5.25,5.25,0,0,0,2.83.89c1.82,0,2.85-1.24,2.85-3.27V26.44H89.49V25.09H95Z" transform="translate(-9.68 -9.77)"/><path class="cls-3" d="M104.39,25.26l-.4,3.65c-.13,1.29.55,2,2.89,2v1.29c-2.36,0-3,.71-2.89,2l.4,3.61c.25,2.31-1.73,3-3.86,3V39.49c1.39,0,2.49-.32,2.38-1.52l-.38-3.9c-.17-1.67.41-2.3,2-2.52-1.5-.27-2.14-1-2-2.57l.38-3.89c.11-1.18-1-1.52-2.38-1.52V22.29C102.66,22.29,104.64,22.94,104.39,25.26Z" transform="translate(-9.68 -9.77)"/></svg>
